paradisio.ufo
<glyph name="parenleft" format="2">
	<advance width="370"/>
	<unicode hex="0028"/>
	<outline>
		<contour>
			<point x="355" y="-195" type="curve"/>
			<point x="355" y="-100" type="line"/>
			<point x="253" y="-100"/>
			<point x="185" y="-57"/>
			<point x="185" y="57" type="curve" smooth="yes"/>
			<point x="185" y="463" type="line" smooth="yes"/>
			<point x="185" y="577"/>
			<point x="253" y="620"/>
			<point x="355" y="620" type="curve"/>
			<point x="355" y="715" type="line"/>
			<point x="180" y="715"/>
			<point x="85" y="647"/>
			<point x="85" y="463" type="curve" smooth="yes"/>
			<point x="85" y="57" type="line" smooth="yes"/>
			<point x="85" y="-127"/>
			<point x="180" y="-195"/>
		</contour>
	</outline>
</glyph>
<glyph name="period" format="2">
	<advance width="300"/>
	<unicode hex="002E"/>
	<outline>
		<contour>
			<point x="150" y="-15" type="curve" smooth="yes"/>
			<point x="208" y="-15"/>
			<point x="230" y="5"/>
			<point x="230" y="57" type="curve" smooth="yes"/>
			<point x="230" y="109"/>
			<point x="208" y="129"/>
			<point x="150" y="129" type="curve" smooth="yes"/>
			<point x="92" y="129"/>
			<point x="70" y="109"/>
			<point x="70" y="57" type="curve" smooth="yes"/>
			<point x="70" y="5"/>
			<point x="92" y="-15"/>
		</contour>
	</outline>
</glyph>
<glyph name="slash" format="2">
	<advance width="393"/>
	<unicode hex="002F"/>
	<outline>
		<contour>
			<point x="317" y="665" type="line"/>
			<point x="5" y="-75" type="line"/>
			<point x="76" y="-75" type="line"/>
			<point x="388" y="665" type="line"/>
		</contour>
	</outline>
</glyph>
<glyph name="zero" format="2">
	<advance width="660"/>
	<unicode hex="0030"/>
	<outline>
		<contour>
			<point x="330" y="-15" type="curve" smooth="yes"/>
			<point x="538" y="-15"/>
			<point x="610" y="76"/>
			<point x="610" y="325" type="curve" smooth="yes"/>
			<point x="610" y="574"/>
			<point x="538" y="665"/>
			<point x="330" y="665" type="curve" smooth="yes"/>
			<point x="122" y="665"/>
			<point x="50" y="574"/>
			<point x="50" y="325" type="curve" smooth="yes"/>
			<point x="50" y="76"/>
			<point x="122" y="-15"/>
		</contour>
		<contour>
			<point x="330" y="78" type="curve" smooth="yes"/>
			<point x="198" y="78"/>
			<point x="148" y="146"/>
			<point x="148" y="325" type="curve" smooth="yes"/>
			<point x="148" y="504"/>
			<point x="198" y="572"/>
			<point x="330" y="572" type="curve" smooth="yes"/>
			<point x="462" y="572"/>
			<point x="512" y="504"/>
			<point x="512" y="325" type="curve" smooth="yes"/>
			<point x="512" y="146"/>
			<point x="462" y="78"/>
		</contour>
	</outline>
</glyph>
<glyph name="one" format="2">
	<advance width="660"/>
	<unicode hex="0031"/>
	<outline>
		<contour>
			<point x="85" y="547" type="line"/>
			<point x="122" y="458" type="line"/>
			<point x="345" y="559" type="line"/>
			<point x="309" y="587" type="line"/>
			<point x="309" y="40" type="line"/>
			<point x="414" y="40" type="line"/>
			<point x="414" y="650" type="line"/>
			<point x="309" y="650" type="line"/>
		</contour>
		<contour>
			<point x="85" y="95" type="line"/>
			<point x="85" y="0" type="line"/>
			<point x="640" y="0" type="line"/>
			<point x="640" y="95" type="line"/>
		</contour>
	</outline>
</glyph>
<glyph name="three" format="2">
	<advance width="660"/>
	<unicode hex="0033"/>
	<outline>
		<contour>
			<point x="80" y="650" type="line"/>
			<point x="573" y="650" type="line"/>
			<point x="573" y="527" type="line"/>
			<point x="337" y="352" type="line"/>
			<point x="332" y="378" type="line"/>
			<point x="354" y="382"/>
			<point x="375" y="385"/>
			<point x="395" y="385" type="curve" smooth="yes"/>
			<point x="543" y="385"/>
			<point x="600" y="320"/>
			<point x="600" y="193" type="curve" smooth="yes"/>
			<point x="600" y="81"/>
			<point x="537" y="-15"/>
			<point x="331" y="-15" type="curve" smooth="yes"/>
			<point x="148" y="-15"/>
			<point x="65" y="44"/>
			<point x="65" y="191" type="curve"/>
			<point x="163" y="191" type="line"/>
			<point x="163" y="108"/>
			<point x="219" y="78"/>
			<point x="331" y="78" type="curve" smooth="yes"/>
			<point x="458" y="78"/>
			<point x="502" y="116"/>
			<point x="502" y="188" type="curve" smooth="yes"/>
			<point x="502" y="271"/>
			<point x="461" y="297"/>
			<point x="367" y="297" type="curve" smooth="yes"/>
			<point x="336" y="297"/>
			<point x="309" y="293"/>
			<point x="288" y="289" type="curve"/>
			<point x="244" y="385" type="line"/>
			<point x="456" y="555" type="line"/>
			<point x="80" y="555" type="line"/>
		</contour>
	</outline>
</glyph>
<glyph name="five" format="2">
	<advance width="660"/>
	<unicode hex="0035"/>
	<outline>
		<contour>
			<point x="159" y="289" type="curve"/>
			<point x="88" y="338" type="line"/>
			<point x="95" y="650" type="line"/>
			<point x="563" y="650" type="line"/>
			<point x="563" y="555" type="line"/>
			<point x="186" y="555" type="line"/>
			<point x="182" y="349" type="line"/>
			<point x="146" y="380" type="line"/>
			<point x="199" y="400"/>
			<point x="249" y="410"/>
			<point x="333" y="410" type="curve" smooth="yes"/>
			<point x="543" y="410"/>
			<point x="600" y="322"/>
			<point x="600" y="200" type="curve" smooth="yes"/>
			<point x="600" y="83"/>
			<point x="541" y="-15"/>
			<point x="346" y="-15" type="curve" smooth="yes"/>
			<point x="150" y="-15"/>
			<point x="60" y="44"/>
			<point x="60" y="191" type="curve"/>
			<point x="158" y="191" type="line"/>
			<point x="158" y="108"/>
			<point x="221" y="78"/>
			<point x="346" y="78" type="curve" smooth="yes"/>
			<point x="462" y="78"/>
			<point x="502" y="119"/>
			<point x="502" y="197" type="curve" smooth="yes"/>
			<point x="502" y="281"/>
			<point x="459" y="318"/>
			<point x="333" y="318" type="curve" smooth="yes"/>
			<point x="259" y="318"/>
			<point x="218" y="312"/>
		</contour>
	</outline>
</glyph>
<glyph name="six" format="2">
	<advance width="660"/>
	<unicode hex="0036"/>
	<outline>
		<contour>
			<point x="116" y="284" type="curve"/>
			<point x="161" y="203" type="line"/>
			<point x="161" y="293"/>
			<point x="214" y="327"/>
			<point x="334" y="327" type="curve" smooth="yes"/>
			<point x="454" y="327"/>
			<point x="507" y="293"/>
			<point x="507" y="203" type="curve" smooth="yes"/>
			<point x="507" y="113"/>
			<point x="454" y="79"/>
			<point x="334" y="79" type="curve" smooth="yes"/>
			<point x="214" y="79"/>
			<point x="161" y="113"/>
			<point x="161" y="203" type="curve"/>
			<point x="148" y="332" type="line"/>
			<point x="148" y="527"/>
			<point x="217" y="572"/>
			<point x="336" y="572" type="curve" smooth="yes"/>
			<point x="432" y="572"/>
			<point x="477" y="541"/>
			<point x="490" y="485" type="curve"/>
			<point x="588" y="485" type="line"/>
			<point x="576" y="604"/>
			<point x="496" y="665"/>
			<point x="330" y="665" type="curve" smooth="yes"/>
			<point x="136" y="665"/>
			<point x="50" y="570"/>
			<point x="50" y="329" type="curve" smooth="yes"/>
			<point x="50" y="87"/>
			<point x="109" y="-14"/>
			<point x="334" y="-14" type="curve" smooth="yes"/>
			<point x="509" y="-14"/>
			<point x="605" y="49"/>
			<point x="605" y="203" type="curve" smooth="yes"/>
			<point x="605" y="362"/>
			<point x="515" y="420"/>
			<point x="338" y="420" type="curve" smooth="yes"/>
			<point x="190" y="420"/>
			<point x="123" y="337"/>
		</contour>
	</outline>
</glyph>
<glyph name="seven" format="2">
	<advance width="660"/>
	<unicode hex="0037"/>
	<outline>
		<contour>
			<point x="620" y="647" type="line"/>
			<point x="55" y="647" type="line"/>
			<point x="55" y="545" type="line"/>
			<point x="620" y="545" type="line"/>
		</contour>
		<contour>
			<point x="524" y="595" type="line"/>
			<point x="135" y="1" type="line"/>
			<point x="271" y="1" type="line"/>
			<point x="620" y="545" type="line"/>
		</contour>
	</outline>
</glyph>
<glyph name="question" format="2">
	<advance width="513"/>
	<unicode hex="003F"/>
	<outline>
		<contour>
			<point x="229" y="-15" type="curve" smooth="yes"/>
			<point x="277" y="-15"/>
			<point x="290" y="3"/>
			<point x="290" y="43" type="curve" smooth="yes"/>
			<point x="290" y="81"/>
			<point x="277" y="99"/>
			<point x="229" y="99" type="curve" smooth="yes"/>
			<point x="181" y="99"/>
			<point x="168" y="81"/>
			<point x="168" y="43" type="curve" smooth="yes"/>
			<point x="168" y="3"/>
			<point x="181" y="-15"/>
		</contour>
		<contour>
			<point x="40" y="481" type="curve" smooth="yes"/>
			<point x="40" y="439" type="line"/>
			<point x="133" y="439" type="line"/>
			<point x="133" y="481" type="line" smooth="yes"/>
			<point x="133" y="559"/>
			<point x="164" y="577"/>
			<point x="259" y="577" type="curve" smooth="yes"/>
			<point x="354" y="577"/>
			<point x="385" y="557"/>
			<point x="385" y="471" type="curve" smooth="yes"/>
			<point x="385" y="389"/>
			<point x="363" y="366"/>
			<point x="307" y="366" type="curve" smooth="yes"/>
			<point x="218" y="366"/>
			<point x="184" y="331"/>
			<point x="184" y="237" type="curve" smooth="yes"/>
			<point x="184" y="185" type="line"/>
			<point x="276" y="185" type="line"/>
			<point x="276" y="237" type="line" smooth="yes"/>
			<point x="276" y="268"/>
			<point x="284" y="278"/>
			<point x="307" y="278" type="curve" smooth="yes"/>
			<point x="422" y="278"/>
			<point x="478" y="337"/>
			<point x="478" y="471" type="curve" smooth="yes"/>
			<point x="478" y="614"/>
			<point x="419" y="665"/>
			<point x="259" y="665" type="curve" smooth="yes"/>
			<point x="99" y="665"/>
			<point x="40" y="614"/>
		</contour>
	</outline>
</glyph>
<glyph name="at" format="2">
	<advance width="769"/>
	<unicode hex="0040"/>
	<outline>
		<contour>
			<point x="729" y="346" type="curve" smooth="yes"/>
			<point x="729" y="209"/>
			<point x="688" y="142"/>
			<point x="603" y="142" type="curve" smooth="yes"/>
			<point x="538" y="142"/>
			<point x="493" y="170"/>
			<point x="493" y="259" type="curve"/>
			<point x="509" y="259" type="line"/>
			<point x="509" y="179"/>
			<point x="473" y="142"/>
			<point x="371" y="142" type="curve" smooth="yes"/>
			<point x="253" y="142"/>
			<point x="208" y="174"/>
			<point x="208" y="253" type="curve" smooth="yes"/>
			<point x="208" y="332"/>
			<point x="254" y="362"/>
			<point x="376" y="362" type="curve" smooth="yes"/>
			<point x="502" y="362" type="line"/>
			<point x="502" y="299" type="line"/>
			<point x="375" y="299" type="line" smooth="yes"/>
			<point x="305" y="299"/>
			<point x="287" y="287"/>
			<point x="287" y="258" type="curve" smooth="yes"/>
			<point x="287" y="229"/>
			<point x="304" y="216"/>
			<point x="373" y="216" type="curve" smooth="yes"/>
			<point x="455" y="216"/>
			<point x="479" y="237"/>
			<point x="479" y="308" type="curve" smooth="yes"/>
			<point x="479" y="377" type="line" smooth="yes"/>
			<point x="479" y="429"/>
			<point x="453" y="453"/>
			<point x="383" y="453" type="curve" smooth="yes"/>
			<point x="337" y="453"/>
			<point x="306" y="440"/>
			<point x="302" y="409" type="curve"/>
			<point x="223" y="409" type="line"/>
			<point x="233" y="492"/>
			<point x="288" y="527"/>
			<point x="389" y="527" type="curve" smooth="yes"/>
			<point x="508" y="527"/>
			<point x="553" y="480"/>
			<point x="554" y="381" type="curve" smooth="yes"/>
			<point x="555" y="285" type="line" smooth="yes"/>
			<point x="555" y="242"/>
			<point x="571" y="211"/>
			<point x="603" y="211" type="curve" smooth="yes"/>
			<point x="639" y="211"/>
			<point x="652" y="248"/>
			<point x="652" y="346" type="curve" smooth="yes"/>
			<point x="652" y="548"/>
			<point x="612" y="586"/>
			<point x="399" y="586" type="curve" smooth="yes"/>
			<point x="375" y="586" type="line" smooth="yes"/>
			<point x="163" y="586"/>
			<point x="124" y="548"/>
			<point x="124" y="343" type="curve" smooth="yes"/>
			<point x="124" y="308" type="line" smooth="yes"/>
			<point x="124" y="102"/>
			<point x="164" y="64"/>
			<point x="377" y="64" type="curve" smooth="yes"/>
			<point x="440" y="64" type="line" smooth="yes"/>
			<point x="503" y="64"/>
			<point x="586" y="68"/>
			<point x="617" y="69" type="curve"/>
			<point x="617" y="-5" type="line"/>
			<point x="591" y="-6"/>
			<point x="503" y="-10"/>
			<point x="440" y="-10" type="curve" smooth="yes"/>
			<point x="377" y="-10" type="line" smooth="yes"/>
			<point x="116" y="-10"/>
			<point x="45" y="58"/>
			<point x="45" y="308" type="curve" smooth="yes"/>
			<point x="45" y="343" type="line" smooth="yes"/>
			<point x="45" y="592"/>
			<point x="116" y="660"/>
			<point x="375" y="660" type="curve" smooth="yes"/>
			<point x="399" y="660" type="line" smooth="yes"/>
			<point x="658" y="660"/>
			<point x="729" y="593"/>
		</contour>
	</outline>
</glyph>
<glyph name="A" format="2">
	<advance width="700"/>
	<unicode hex="0041"/>
	<anchor x="350" y="650" name="top"/>
	<outline>
		<contour>
			<point x="140" y="160" type="line"/>
			<point x="560" y="160" type="line"/>
			<point x="560" y="255" type="line"/>
			<point x="140" y="255" type="line"/>
		</contour>
		<contour>
			<point x="10" y="0" type="line"/>
			<point x="123" y="0" type="line"/>
			<point x="207" y="206" type="line"/>
			<point x="350" y="573" type="line"/>
			<point x="492" y="208" type="line"/>
			<point x="577" y="0" type="line"/>
			<point x="690" y="0" type="line"/>
			<point x="420" y="650" type="line"/>
			<point x="280" y="650" type="line"/>
		</contour>
	</outline>
</glyph>
<glyph name="C" format="2">
	<advance width="677"/>
	<unicode hex="0043"/>
	<outline>
		<contour>
			<point x="346" y="-15" type="curve" smooth="yes"/>
			<point x="526" y="-15"/>
			<point x="608" y="39"/>
			<point x="642" y="173" type="curve"/>
			<point x="532" y="173" type="line"/>
			<point x="502" y="107"/>
			<point x="450" y="80"/>
			<point x="346" y="80" type="curve" smooth="yes"/>
			<point x="194" y="80"/>
			<point x="144" y="141"/>
			<point x="144" y="324" type="curve" smooth="yes"/>
			<point x="144" y="510"/>
			<point x="194" y="570"/>
			<point x="346" y="570" type="curve" smooth="yes"/>
			<point x="449" y="570"/>
			<point x="502" y="546"/>
			<point x="532" y="477" type="curve"/>
			<point x="642" y="477" type="line"/>
			<point x="607" y="612"/>
			<point x="525" y="665"/>
			<point x="346" y="665" type="curve" smooth="yes"/>
			<point x="126" y="665"/>
			<point x="45" y="573"/>
			<point x="45" y="324" type="curve" smooth="yes"/>
			<point x="45" y="77"/>
			<point x="126" y="-15"/>
		</contour>
	</outline>
</glyph>
<glyph name="D" format="2">
	<advance width="683"/>
	<unicode hex="0044"/>
	<anchor x="121" y="650" name="top"/>
	<outline>
		<contour>
			<point x="70" y="0" type="line"/>
			<point x="172" y="0" type="line"/>
			<point x="172" y="650" type="line"/>
			<point x="70" y="650" type="line"/>
		</contour>
		<contour>
			<point x="323" y="555" type="line" smooth="yes"/>
			<point x="480" y="555"/>
			<point x="538" y="492"/>
			<point x="538" y="325" type="curve" smooth="yes"/>
			<point x="538" y="158"/>
			<point x="480" y="95"/>
			<point x="323" y="95" type="curve" smooth="yes"/>
			<point x="139" y="95" type="line"/>
			<point x="139" y="0" type="line"/>
			<point x="323" y="0" type="line" smooth="yes"/>
			<point x="553" y="0"/>
			<point x="638" y="88"/>
			<point x="638" y="325" type="curve" smooth="yes"/>
			<point x="638" y="562"/>
			<point x="553" y="650"/>
			<point x="323" y="650" type="curve" smooth="yes"/>
			<point x="139" y="650" type="line"/>
			<point x="139" y="555" type="line"/>
		</contour>
	</outline>
</glyph>
<glyph name="F" format="2">
	<advance width="553"/>
	<unicode hex="0046"/>
	<outline>
		<contour>
			<point x="528" y="650" type="line"/>
			<point x="70" y="650" type="line"/>
			<point x="70" y="0" type="line"/>
			<point x="172" y="0" type="line"/>
			<point x="172" y="555" type="line"/>
			<point x="528" y="555" type="line"/>
		</contour>
		<contour>
			<point x="498" y="362" type="line"/>
			<point x="135" y="362" type="line"/>
			<point x="135" y="267" type="line"/>
			<point x="498" y="267" type="line"/>
		</contour>
	</outline>
</glyph>
<glyph name="H" format="2">
	<advance width="700"/>
	<unicode hex="0048"/>
	<outline>
		<contour>
			<point x="70" y="650" type="line"/>
			<point x="70" y="0" type="line"/>
			<point x="172" y="0" type="line"/>
			<point x="172" y="650" type="line"/>
		</contour>
		<contour>
			<point x="528" y="650" type="line"/>
			<point x="528" y="0" type="line"/>
			<point x="630" y="0" type="line"/>
			<point x="630" y="650" type="line"/>
		</contour>
		<contour>
			<point x="130" y="376" type="line"/>
			<point x="130" y="281" type="line"/>
			<point x="570" y="281" type="line"/>
			<point x="570" y="376" type="line"/>
		</contour>
	</outline>
</glyph>
<glyph name="J" format="2">
	<advance width="585"/>
	<unicode hex="004A"/>
	<outline>
		<contour>
			<point x="152" y="226" type="line"/>
			<point x="50" y="226" type="line"/>
			<point x="50" y="214" type="line" smooth="yes"/>
			<point x="50" y="55"/>
			<point x="122" y="-15"/>
			<point x="285" y="-15" type="curve" smooth="yes"/>
			<point x="448" y="-15"/>
			<point x="520" y="53"/>
			<point x="520" y="224" type="curve" smooth="yes"/>
			<point x="520" y="650" type="line"/>
			<point x="418" y="650" type="line"/>
			<point x="418" y="224" type="line" smooth="yes"/>
			<point x="418" y="117"/>
			<point x="379" y="80"/>
			<point x="285" y="80" type="curve" smooth="yes"/>
			<point x="191" y="80"/>
			<point x="152" y="119"/>
			<point x="152" y="214" type="curve" smooth="yes"/>
		</contour>
	</outline>
</glyph>
<glyph name="L" format="2">
	<advance width="545"/>
	<unicode hex="004C"/>
	<outline>
		<contour>
			<point x="70" y="650" type="line"/>
			<point x="70" y="0" type="line"/>
			<point x="520" y="0" type="line"/>
			<point x="520" y="97" type="line"/>
			<point x="172" y="97" type="line"/>
			<point x="172" y="650" type="line"/>
		</contour>
	</outline>
</glyph>
<glyph name="M" format="2">
	<advance width="872"/>
	<unicode hex="004D"/>
	<outline>
		<contour>
			<point x="70" y="650" type="line"/>
			<point x="70" y="1" type="line"/>
			<point x="172" y="1" type="line"/>
			<point x="172" y="573" type="line"/>
			<point x="365" y="0" type="line"/>
			<point x="507" y="0" type="line"/>
			<point x="700" y="573" type="line"/>
			<point x="700" y="0" type="line"/>
			<point x="802" y="0" type="line"/>
			<point x="802" y="650" type="line"/>
			<point x="625" y="650" type="line"/>
			<point x="436" y="77" type="line"/>
			<point x="247" y="650" type="line"/>
		</contour>
	</outline>
</glyph>
<glyph name="N" format="2">
	<advance width="700"/>
	<unicode hex="004E"/>
	<anchor x="350" y="650" name="top"/>
	<outline>
		<contour>
			<point x="70" y="650" type="line"/>
			<point x="70" y="0" type="line"/>
			<point x="167" y="0" type="line"/>
			<point x="167" y="573" type="line"/>
			<point x="473" y="0" type="line"/>
			<point x="630" y="0" type="line"/>
			<point x="630" y="650" type="line"/>
			<point x="533" y="650" type="line"/>
			<point x="533" y="77" type="line"/>
			<point x="227" y="650" type="line"/>
		</contour>
	</outline>
</glyph>
<glyph name="P" format="2">
	<advance width="623"/>
	<unicode hex="0050"/>
	<outline>
		<contour>
			<point x="329" y="295" type="curve" smooth="yes"/>
			<point x="147" y="295" type="line"/>
			<point x="147" y="200" type="line"/>
			<point x="329" y="200" type="line" smooth="yes"/>
			<point x="510" y="200"/>
			<point x="588" y="271"/>
			<point x="588" y="425" type="curve" smooth="yes"/>
			<point x="588" y="579"/>
			<point x="510" y="650"/>
			<point x="329" y="650" type="curve" smooth="yes"/>
			<point x="70" y="650" type="line"/>
			<point x="70" y="0" type="line"/>
			<point x="173" y="0" type="line"/>
			<point x="173" y="590" type="line"/>
			<point x="152" y="555" type="line"/>
			<point x="329" y="555" type="line" smooth="yes"/>
			<point x="445" y="555"/>
			<point x="488" y="519"/>
			<point x="488" y="425" type="curve" smooth="yes"/>
			<point x="488" y="331"/>
			<point x="445" y="295"/>
		</contour>
	</outline>
</glyph>
<glyph name="T" format="2">
	<advance width="574"/>
	<unicode hex="0054"/>
	<outline>
		<contour>
			<point x="235" y="610" type="line"/>
			<point x="235" y="0" type="line"/>
			<point x="339" y="0" type="line"/>
			<point x="339" y="610" type="line"/>
		</contour>
		<contour>
			<point x="564" y="650" type="line"/>
			<point x="10" y="650" type="line"/>
			<point x="10" y="555" type="line"/>
			<point x="564" y="555" type="line"/>
		</contour>
	</outline>
</glyph>
<glyph name="Y" format="2">
	<advance width="604"/>
	<unicode hex="0059"/>
	<outline>
		<contour>
			<point x="250" y="0" type="line"/>
			<point x="352" y="0" type="line"/>
			<point x="352" y="224" type="line"/>
			<point x="599" y="650" type="line"/>
			<point x="480" y="650" type="line"/>
			<point x="270" y="263" type="line"/>
			<point x="334" y="263" type="line"/>
			<point x="124" y="650" type="line"/>
			<point x="5" y="650" type="line"/>
			<point x="252" y="224" type="line"/>
		</contour>
	</outline>
</glyph>
<glyph name="underscore" format="2">
	<advance width="660"/>
	<unicode hex="005F"/>
	<outline>
		<contour>
			<point x="655" y="-41" type="line"/>
			<point x="5" y="-41" type="line"/>
			<point x="5" y="-111" type="line"/>
			<point x="655" y="-111" type="line"/>
		</contour>
	</outline>
</glyph>
<glyph name="c" format="2">
	<advance width="545"/>
	<unicode hex="0063"/>
	<outline>
		<contour>
			<point x="288" y="-15" type="curve" smooth="yes"/>
			<point x="423" y="-15"/>
			<point x="493" y="27"/>
			<point x="510" y="132" type="curve"/>
			<point x="412" y="132" type="line"/>
			<point x="399" y="89"/>
			<point x="358" y="73"/>
			<point x="288" y="73" type="curve" smooth="yes"/>
			<point x="179" y="73"/>
			<point x="143" y="116"/>
			<point x="143" y="250" type="curve" smooth="yes"/>
			<point x="143" y="384"/>
			<point x="179" y="427"/>
			<point x="288" y="427" type="curve" smooth="yes"/>
			<point x="357" y="427"/>
			<point x="399" y="411"/>
			<point x="412" y="369" type="curve"/>
			<point x="510" y="369" type="line"/>
			<point x="492" y="473"/>
			<point x="422" y="515"/>
			<point x="288" y="515" type="curve" smooth="yes"/>
			<point x="114" y="515"/>
			<point x="50" y="443"/>
			<point x="50" y="250" type="curve" smooth="yes"/>
			<point x="50" y="57"/>
			<point x="114" y="-15"/>
		</contour>
	</outline>
</glyph>
<glyph name="e" format="2">
	<advance width="571"/>
	<unicode hex="0065"/>
	<anchor x="284" y="500" name="top"/>
	<outline>
		<contour>
			<point x="291" y="-15" type="curve" smooth="yes"/>
			<point x="428" y="-15"/>
			<point x="497" y="27"/>
			<point x="516" y="132" type="curve"/>
			<point x="416" y="132" type="line"/>
			<point x="403" y="89"/>
			<point x="362" y="73"/>
			<point x="291" y="73" type="curve" smooth="yes"/>
			<point x="180" y="73"/>
			<point x="143" y="113"/>
			<point x="143" y="234" type="curve" smooth="yes"/>
			<point x="143" y="256" type="line" smooth="yes"/>
			<point x="143" y="385"/>
			<point x="180" y="427"/>
			<point x="284" y="427" type="curve" smooth="yes"/>
			<point x="388" y="427"/>
			<point x="416" y="383"/>
			<point x="416" y="245" type="curve" smooth="yes"/>
			<point x="416" y="228" type="line"/>
			<point x="447" y="290" type="line"/>
			<point x="123" y="290" type="line"/>
			<point x="123" y="208" type="line"/>
			<point x="516" y="208" type="line"/>
			<point x="516" y="250" type="line" smooth="yes"/>
			<point x="516" y="441"/>
			<point x="451" y="515"/>
			<point x="284" y="515" type="curve" smooth="yes"/>
			<point x="117" y="515"/>
			<point x="50" y="439"/>
			<point x="50" y="250" type="curve" smooth="yes"/>
			<point x="50" y="61"/>
			<point x="117" y="-15"/>
		</contour>
	</outline>
</glyph>
<glyph name="f" format="2">
	<advance width="403"/>
	<unicode hex="0066"/>
	<outline>
		<contour>
			<point x="30" y="416" type="line"/>
			<point x="373" y="416" type="line"/>
			<point x="373" y="500" type="line"/>
			<point x="30" y="500" type="line"/>
		</contour>
		<contour>
			<point x="297" y="703" type="curve" smooth="yes"/>
			<point x="174" y="703"/>
			<point x="130" y="661"/>
			<point x="130" y="518" type="curve" smooth="yes"/>
			<point x="130" y="0" type="line"/>
			<point x="226" y="0" type="line"/>
			<point x="226" y="520" type="line" smooth="yes"/>
			<point x="226" y="591"/>
			<point x="244" y="618"/>
			<point x="307" y="618" type="curve" smooth="yes"/>
			<point x="333" y="618"/>
			<point x="365" y="616"/>
			<point x="388" y="613" type="curve"/>
			<point x="388" y="696" type="line"/>
			<point x="363" y="699"/>
			<point x="331" y="703"/>
		</contour>
	</outline>
</glyph>
<glyph name="g" format="2">
	<advance width="602"/>
	<unicode hex="0067"/>
	<outline>
		<contour>
			<point x="532" y="13" type="curve" smooth="yes"/>
			<point x="532" y="500" type="line"/>
			<point x="452" y="500" type="line"/>
			<point x="452" y="397" type="line"/>
			<point x="457" y="107" type="line"/>
			<point x="443" y="72"/>
			<point x="437" y="39"/>
			<point x="437" y="4" type="curve" smooth="yes"/>
			<point x="437" y="-3" type="line" smooth="yes"/>
			<point x="437" y="-93"/>
			<point x="401" y="-127"/>
			<point x="299" y="-127" type="curve" smooth="yes"/>
			<point x="224" y="-127"/>
			<point x="180" y="-111"/>
			<point x="165" y="-68" type="curve"/>
			<point x="67" y="-68" type="line"/>
			<point x="84" y="-173"/>
			<point x="158" y="-215"/>
			<point x="299" y="-215" type="curve" smooth="yes"/>
			<point x="469" y="-215"/>
			<point x="532" y="-154"/>
		</contour>
		<contour>
			<point x="285" y="-15" type="curve" smooth="yes"/>
			<point x="422" y="-15"/>
			<point x="473" y="57"/>
			<point x="473" y="250" type="curve" smooth="yes"/>
			<point x="473" y="443"/>
			<point x="422" y="515"/>
			<point x="285" y="515" type="curve" smooth="yes"/>
			<point x="114" y="515"/>
			<point x="50" y="443"/>
			<point x="50" y="250" type="curve" smooth="yes"/>
			<point x="50" y="57"/>
			<point x="114" y="-15"/>
		</contour>
		<contour>
			<point x="290" y="427" type="curve" smooth="yes"/>
			<point x="401" y="427"/>
			<point x="437" y="384"/>
			<point x="437" y="250" type="curve" smooth="yes"/>
			<point x="437" y="116"/>
			<point x="401" y="73"/>
			<point x="290" y="73" type="curve" smooth="yes"/>
			<point x="179" y="73"/>
			<point x="143" y="116"/>
			<point x="143" y="250" type="curve" smooth="yes"/>
			<point x="143" y="384"/>
			<point x="179" y="427"/>
		</contour>
	</outline>
</glyph>
<glyph name="h" format="2">
	<advance width="589"/>
	<unicode hex="0068"/>
	<outline>
		<contour>
			<point x="70" y="700" type="line"/>
			<point x="70" y="0" type="line"/>
			<point x="165" y="0" type="line"/>
			<point x="165" y="362" type="line"/>
			<point x="145" y="393" type="line"/>
			<point x="159" y="428"/>
			<point x="165" y="461"/>
			<point x="165" y="496" type="curve" smooth="yes"/>
			<point x="165" y="700" type="line"/>
		</contour>
		<contour>
			<point x="129" y="292" type="curve"/>
			<point x="165" y="292" type="line"/>
			<point x="165" y="392"/>
			<point x="202" y="427"/>
			<point x="297" y="427" type="curve" smooth="yes"/>
			<point x="392" y="427"/>
			<point x="429" y="386"/>
			<point x="429" y="292" type="curve" smooth="yes"/>
			<point x="429" y="0" type="line"/>
			<point x="524" y="0" type="line"/>
			<point x="524" y="292" type="line" smooth="yes"/>
			<point x="524" y="462"/>
			<point x="456" y="515"/>
			<point x="315" y="515" type="curve" smooth="yes"/>
			<point x="183" y="515"/>
			<point x="129" y="444"/>
		</contour>
	</outline>
</glyph>
<glyph name="k" format="2">
	<advance width="557"/>
	<unicode hex="006B"/>
	<outline>
		<contour>
			<point x="70" y="700" type="line"/>
			<point x="70" y="0" type="line"/>
			<point x="165" y="0" type="line"/>
			<point x="165" y="700" type="line"/>
		</contour>
		<contour>
			<point x="133" y="262" type="line"/>
			<point x="133" y="133" type="line"/>
			<point x="530" y="500" type="line"/>
			<point x="392" y="500" type="line"/>
		</contour>
		<contour>
			<point x="279" y="329" type="line"/>
			<point x="202" y="270" type="line"/>
			<point x="423" y="0" type="line"/>
			<point x="552" y="0" type="line"/>
		</contour>
	</outline>
</glyph>
<glyph name="m" format="2">
	<advance width="928"/>
	<unicode hex="006D"/>
	<guideline x="471" y="427" angle="0"/>
	<outline>
		<contour>
			<point x="70" y="500" type="line"/>
			<point x="70" y="0" type="line"/>
			<point x="165" y="0" type="line"/>
			<point x="165" y="362" type="line"/>
			<point x="150" y="362" type="line"/>
			<point x="150" y="500" type="line"/>
		</contour>
		<contour>
			<point x="129" y="292" type="curve"/>
			<point x="165" y="292" type="line"/>
			<point x="165" y="392"/>
			<point x="201" y="427"/>
			<point x="292" y="427" type="curve" smooth="yes"/>
			<point x="383" y="427"/>
			<point x="419" y="386"/>
			<point x="419" y="292" type="curve" smooth="yes"/>
			<point x="419" y="0" type="line"/>
			<point x="514" y="0" type="line"/>
			<point x="514" y="292" type="line" smooth="yes"/>
			<point x="514" y="462"/>
			<point x="448" y="515"/>
			<point x="310" y="515" type="curve" smooth="yes"/>
			<point x="182" y="515"/>
			<point x="129" y="444"/>
		</contour>
		<contour>
			<point x="468" y="292" type="curve"/>
			<point x="514" y="292" type="line"/>
			<point x="514" y="392"/>
			<point x="550" y="427"/>
			<point x="641" y="427" type="curve" smooth="yes"/>
			<point x="732" y="427"/>
			<point x="768" y="386"/>
			<point x="768" y="292" type="curve" smooth="yes"/>
			<point x="768" y="0" type="line"/>
			<point x="863" y="0" type="line"/>
			<point x="863" y="292" type="line" smooth="yes"/>
			<point x="863" y="462"/>
			<point x="795" y="515"/>
			<point x="654" y="515" type="curve" smooth="yes"/>
			<point x="522" y="515"/>
			<point x="468" y="444"/>
		</contour>
	</outline>
</glyph>
<glyph name="o" format="2">
	<advance width="580"/>
	<unicode hex="006F"/>
	<anchor x="290" y="500" name="top"/>
	<outline>
		<contour>
			<point x="290" y="-15" type="curve" smooth="yes"/>
			<point x="465" y="-15"/>
			<point x="530" y="57"/>
			<point x="530" y="250" type="curve" smooth="yes"/>
			<point x="530" y="443"/>
			<point x="465" y="515"/>
			<point x="290" y="515" type="curve" smooth="yes"/>
			<point x="115" y="515"/>
			<point x="50" y="443"/>
			<point x="50" y="250" type="curve" smooth="yes"/>
			<point x="50" y="57"/>
			<point x="115" y="-15"/>
		</contour>
		<contour>
			<point x="290" y="73" type="curve" smooth="yes"/>
			<point x="179" y="73"/>
			<point x="143" y="116"/>
			<point x="143" y="250" type="curve" smooth="yes"/>
			<point x="143" y="384"/>
			<point x="179" y="427"/>
			<point x="290" y="427" type="curve" smooth="yes"/>
			<point x="401" y="427"/>
			<point x="437" y="384"/>
			<point x="437" y="250" type="curve" smooth="yes"/>
			<point x="437" y="116"/>
			<point x="401" y="73"/>
		</contour>
	</outline>
</glyph>
<glyph name="r" format="2">
	<advance width="385"/>
	<unicode hex="0072"/>
	<outline>
		<contour>
			<point x="70" y="500" type="line"/>
			<point x="70" y="0" type="line"/>
			<point x="165" y="0" type="line"/>
			<point x="165" y="367" type="line"/>
			<point x="150" y="362" type="line"/>
			<point x="150" y="500" type="line"/>
		</contour>
		<contour>
			<point x="129" y="289" type="curve"/>
			<point x="165" y="289" type="line"/>
			<point x="165" y="378"/>
			<point x="207" y="409"/>
			<point x="315" y="409" type="curve" smooth="yes"/>
			<point x="365" y="409" type="line"/>
			<point x="365" y="500" type="line"/>
			<point x="315" y="500" type="line" smooth="yes"/>
			<point x="183" y="500"/>
			<point x="129" y="431"/>
		</contour>
	</outline>
</glyph>
<glyph name="s" format="2">
	<advance width="531"/>
	<unicode hex="0073"/>
	<outline>
		<contour>
			<point x="257" y="515" type="curve" smooth="yes"/>
			<point x="415" y="515"/>
			<point x="474" y="461"/>
			<point x="474" y="369" type="curve"/>
			<point x="379" y="369" type="line"/>
			<point x="375" y="408"/>
			<point x="338" y="427"/>
			<point x="261" y="427" type="curve" smooth="yes"/>
			<point x="169" y="427"/>
			<point x="146" y="404"/>
			<point x="146" y="368" type="curve" smooth="yes"/>
			<point x="146" y="334"/>
			<point x="175" y="315"/>
			<point x="285" y="296" type="curve" smooth="yes"/>
			<point x="419" y="273"/>
			<point x="491" y="253"/>
			<point x="491" y="141" type="curve" smooth="yes"/>
			<point x="491" y="32"/>
			<point x="422" y="-15"/>
			<point x="268" y="-15" type="curve" smooth="yes"/>
			<point x="123" y="-15"/>
			<point x="47" y="32"/>
			<point x="40" y="138" type="curve"/>
			<point x="135" y="138" type="line"/>
			<point x="140" y="99"/>
			<point x="168" y="73"/>
			<point x="267" y="73" type="curve" smooth="yes"/>
			<point x="365" y="73"/>
			<point x="396" y="92"/>
			<point x="396" y="137" type="curve" smooth="yes"/>
			<point x="396" y="177"/>
			<point x="371" y="194"/>
			<point x="255" y="209" type="curve" smooth="yes"/>
			<point x="106" y="228"/>
			<point x="51" y="269"/>
			<point x="51" y="361" type="curve" smooth="yes"/>
			<point x="51" y="465"/>
			<point x="120" y="515"/>
		</contour>
	</outline>
</glyph>
<glyph name="w" format="2">
	<advance width="816"/>
	<unicode hex="0077"/>
	<outline>
		<contour>
			<point x="10" y="500" type="line"/>
			<point x="160" y="0" type="line"/>
			<point x="301" y="0" type="line"/>
			<point x="408" y="430" type="line"/>
			<point x="515" y="0" type="line"/>
			<point x="656" y="0" type="line"/>
			<point x="806" y="500" type="line"/>
			<point x="701" y="500" type="line"/>
			<point x="586" y="70" type="line"/>
			<point x="479" y="500" type="line"/>
			<point x="337" y="500" type="line"/>
			<point x="230" y="70" type="line"/>
			<point x="115" y="500" type="line"/>
		</contour>
	</outline>
</glyph>
<glyph name="x" format="2">
	<advance width="520"/>
	<unicode hex="0078"/>
	<outline>
		<contour>
			<point x="395" y="-1" type="line"/>
			<point x="515" y="-1" type="line"/>
			<point x="146" y="499" type="line"/>
			<point x="26" y="500" type="line"/>
		</contour>
		<contour>
			<point x="310" y="236" type="line"/>
			<point x="505" y="499" type="line"/>
			<point x="385" y="499" type="line"/>
			<point x="250" y="308" type="line"/>
		</contour>
		<contour>
			<point x="129" y="0" type="line"/>
			<point x="283" y="208" type="line"/>
			<point x="220" y="276" type="line"/>
			<point x="10" y="0" type="line"/>
		</contour>
	</outline>
</glyph>
<glyph name="idotless" format="2">
	<advance width="236"/>
	<unicode hex="0131"/>
	<anchor x="118" y="500" name="top"/>
	<outline>
		<contour>
			<point x="70" y="500" type="line"/>
			<point x="70" y="0" type="line"/>
			<point x="166" y="0" type="line"/>
			<point x="166" y="500" type="line"/>
		</contour>
	</outline>
</glyph>
<glyph name="jdotless" format="2">
	<advance width="273"/>
	<unicode hex="0237"/>
	<anchor x="155" y="500" name="top"/>
	<outline>
		<contour>
			<point x="203" y="500" type="line"/>
			<point x="107" y="500" type="line"/>
			<point x="107" y="-15" type="line" smooth="yes"/>
			<point x="107" y="-101"/>
			<point x="67" y="-110"/>
			<point x="0" y="-110" type="curve"/>
			<point x="0" y="-200" type="line"/>
			<point x="7" y="-200" type="line" smooth="yes"/>
			<point x="137" y="-200"/>
			<point x="203" y="-165"/>
			<point x="203" y="-13" type="curve" smooth="yes"/>
		</contour>
	</outline>
</glyph>
<glyph name="acutecomb" format="2">
	<advance width="0"/>
	<unicode hex="0301"/>
	<anchor x="0" y="500" name="_top"/>
	<outline>
		<contour>
			<point x="-81" y="610" type="line"/>
			<point x="-46" y="557" type="line"/>
			<point x="156" y="668" type="line"/>
			<point x="110" y="748" type="line"/>
		</contour>
	</outline>
</glyph>
<glyph name="tildecomb" format="2">
	<advance width="0"/>
	<unicode hex="0303"/>
	<anchor x="5" y="500" name="_top"/>
	<outline>
		<contour>
			<point x="-186" y="604" type="curve" smooth="yes"/>
			<point x="-186" y="583" type="line"/>
			<point x="-111" y="583" type="line"/>
			<point x="-111" y="604" type="line" smooth="yes"/>
			<point x="-111" y="633"/>
			<point x="-100" y="646"/>
			<point x="-80" y="646" type="curve" smooth="yes"/>
			<point x="-59" y="646"/>
			<point x="-49" y="636"/>
			<point x="-26" y="613" type="curve" smooth="yes"/>
			<point x="-7" y="593"/>
			<point x="23" y="575"/>
			<point x="82" y="575" type="curve" smooth="yes"/>
			<point x="154" y="575"/>
			<point x="186" y="612"/>
			<point x="186" y="688" type="curve" smooth="yes"/>
			<point x="186" y="709" type="line"/>
			<point x="111" y="709" type="line"/>
			<point x="111" y="688" type="line" smooth="yes"/>
			<point x="111" y="659"/>
			<point x="100" y="646"/>
			<point x="80" y="646" type="curve" smooth="yes"/>
			<point x="59" y="646"/>
			<point x="47" y="658"/>
			<point x="29" y="676" type="curve" smooth="yes"/>
			<point x="7" y="699"/>
			<point x="-17" y="717"/>
			<point x="-82" y="717" type="curve" smooth="yes"/>
			<point x="-154" y="717"/>
			<point x="-186" y="680"/>
		</contour>
	</outline>
</glyph>
<glyph name="dieresiscomb" format="2">
	<advance width="0"/>
	<unicode hex="0308"/>
	<anchor x="0" y="500" name="_top"/>
	<outline>
		<contour>
			<point x="-100" y="586" type="curve" smooth="yes"/>
			<point x="-52" y="586"/>
			<point x="-40" y="601"/>
			<point x="-40" y="641" type="curve" smooth="yes"/>
			<point x="-40" y="679"/>
			<point x="-52" y="694"/>
			<point x="-100" y="694" type="curve" smooth="yes"/>
			<point x="-148" y="694"/>
			<point x="-160" y="679"/>
			<point x="-160" y="641" type="curve" smooth="yes"/>
			<point x="-160" y="601"/>
			<point x="-148" y="586"/>
		</contour>
		<contour>
			<point x="100" y="586" type="curve" smooth="yes"/>
			<point x="148" y="586"/>
			<point x="160" y="601"/>
			<point x="160" y="641" type="curve" smooth="yes"/>
			<point x="160" y="679"/>
			<point x="148" y="694"/>
			<point x="100" y="694" type="curve" smooth="yes"/>
			<point x="52" y="694"/>
			<point x="40" y="679"/>
			<point x="40" y="641" type="curve" smooth="yes"/>
			<point x="40" y="601"/>
			<point x="52" y="586"/>
		</contour>
	</outline>
</glyph>
<glyph name="upArrow" format="2">
	<advance width="650"/>
	<unicode hex="2191"/>
	<guideline x="324" y="0" angle="0"/>
	<outline>
		<contour>
			<point x="282" y="568" type="line"/>
			<point x="282" y="0" type="line"/>
			<point x="368" y="0" type="line"/>
			<point x="368" y="568" type="line"/>
		</contour>
		<contour>
			<point x="76" y="273" type="line"/>
			<point x="335" y="543" type="line"/>
			<point x="315" y="543" type="line"/>
			<point x="574" y="273" type="line"/>
			<point x="638" y="337" type="line"/>
			<point x="325" y="650" type="line"/>
			<point x="12" y="337" type="line"/>
		</contour>
	</outline>
</glyph>
<glyph name="leftRightArrow" format="2">
	<advance width="900"/>
	<unicode hex="2194"/>
	<guideline x="25" y="0" angle="0"/>
	<guideline y="-175"/>
	<guideline x="450" y="0" angle="0"/>
	<guideline y="250"/>
	<guideline x="875" y="0" angle="0"/>
	<guideline y="675"/>
	<outline>
		<contour>
			<point x="793" y="293" type="line"/>
			<point x="107" y="293" type="line"/>
			<point x="107" y="207" type="line"/>
			<point x="793" y="207" type="line"/>
		</contour>
		<contour>
			<point x="498" y="499" type="line"/>
			<point x="768" y="240" type="line"/>
			<point x="768" y="260" type="line"/>
			<point x="498" y="1" type="line"/>
			<point x="562" y="-63" type="line"/>
			<point x="875" y="250" type="line"/>
			<point x="562" y="563" type="line"/>
		</contour>
		<contour>
			<point x="402" y="1" type="line"/>
			<point x="132" y="260" type="line"/>
			<point x="132" y="240" type="line"/>
			<point x="402" y="499" type="line"/>
			<point x="338" y="563" type="line"/>
			<point x="25" y="250" type="line"/>
			<point x="338" y="-63" type="line"/>
		</contour>
	</outline>
</glyph>
<glyph name="forkAndKnife" format="2">
	<advance width="900"/>
	<unicode hex="1F374"/>
	<guideline x="28" y="0" angle="0"/>
	<guideline x="3" y="-175" angle="0"/>
	<guideline x="453" y="0" angle="0"/>
	<guideline x="3" y="250" angle="0"/>
	<guideline x="878" y="0" angle="0"/>
	<guideline x="3" y="675" angle="0"/>
	<outline>
		<contour>
			<point x="371" y="658" type="line"/>
			<point x="371" y="439" type="line"/>
			<point x="371" y="350"/>
			<point x="329" y="313"/>
			<point x="264" y="313" type="curve"/>
			<point x="200" y="313"/>
			<point x="158" y="351"/>
			<point x="158" y="439" type="curve"/>
			<point x="158" y="658" type="line"/>
			<point x="103" y="658" type="line"/>
			<point x="103" y="433" type="line"/>
			<point x="103" y="367"/>
			<point x="121" y="279"/>
			<point x="237" y="262" type="curve"/>
			<point x="237" y="-175" type="line"/>
			<point x="292" y="-175" type="line"/>
			<point x="292" y="262" type="line"/>
			<point x="408" y="279"/>
			<point x="426" y="367"/>
			<point x="426" y="433" type="curve"/>
			<point x="426" y="658" type="line"/>
		</contour>
		<contour>
			<point x="740" y="459" type="curve"/>
			<point x="740" y="340"/>
			<point x="713" y="312"/>
			<point x="638" y="312" type="curve"/>
			<point x="564" y="312"/>
			<point x="537" y="340"/>
			<point x="537" y="459" type="curve"/>
			<point x="537" y="583"/>
			<point x="564" y="620"/>
			<point x="638" y="620" type="curve"/>
			<point x="713" y="620"/>
			<point x="740" y="583"/>
		</contour>
		<contour>
			<point x="638" y="675" type="curve"/>
			<point x="525" y="675"/>
			<point x="481" y="620"/>
			<point x="481" y="459" type="curve"/>
			<point x="481" y="321"/>
			<point x="515" y="271"/>
			<point x="612" y="258" type="curve"/>
			<point x="612" y="-175" type="line"/>
			<point x="668" y="-175" type="line"/>
			<point x="668" y="259" type="line"/>
			<point x="763" y="273"/>
			<point x="796" y="322"/>
			<point x="796" y="459" type="curve"/>
			<point x="796" y="620"/>
			<point x="751" y="675"/>
		</contour>
		<contour>
			<point x="196" y="658" type="line"/>
			<point x="196" y="366" type="line"/>
			<point x="246" y="366" type="line"/>
			<point x="246" y="658" type="line"/>
		</contour>
		<contour>
			<point x="282" y="658" type="line"/>
			<point x="282" y="366" type="line"/>
			<point x="332" y="366" type="line"/>
			<point x="332" y="658" type="line"/>
		</contour>
	</outline>
</glyph>
<glyph name="microphone" format="2">
	<advance width="900"/>
	<unicode hex="1F3A4"/>
	<guideline x="27" y="0" angle="0"/>
	<guideline x="2" y="-175" angle="0"/>
	<guideline x="452" y="0" angle="0"/>
	<guideline x="2" y="250" angle="0"/>
	<guideline x="877" y="0" angle="0"/>
	<guideline x="2" y="675" angle="0"/>
	<outline>
		<contour>
			<point x="417" y="313" type="line"/>
			<point x="508" y="337" type="line"/>
			<point x="585" y="-111" type="line"/>
		</contour>
		<contour>
			<point x="523" y="402"/>
			<point x="505" y="379"/>
			<point x="455" y="367" type="curve"/>
			<point x="454" y="367" type="line"/>
			<point x="398" y="352"/>
			<point x="365" y="363"/>
			<point x="343" y="403" type="curve"/>
			<point x="527" y="449" type="line"/>
		</contour>
		<contour>
			<point x="524" y="487" type="curve"/>
			<point x="327" y="438" type="line"/>
			<point x="320" y="457"/>
			<point x="306" y="502"/>
			<point x="306" y="539" type="curve" smooth="yes"/>
			<point x="306" y="598"/>
			<point x="365" y="627"/>
			<point x="432" y="627" type="curve"/>
			<point x="495" y="627"/>
			<point x="513" y="550"/>
		</contour>
		<contour>
			<point x="641" y="-154" type="line"/>
			<point x="551" y="372" type="line"/>
			<point x="567" y="392"/>
			<point x="575" y="417"/>
			<point x="575" y="450" type="curve" smooth="yes"/>
			<point x="575" y="524"/>
			<point x="536" y="675"/>
			<point x="432" y="675" type="curve" smooth="yes"/>
			<point x="382" y="675"/>
			<point x="259" y="653"/>
			<point x="259" y="542" type="curve" smooth="yes"/>
			<point x="259" y="487"/>
			<point x="289" y="347"/>
			<point x="362" y="323" type="curve"/>
			<point x="560" y="-175" type="line"/>
		</contour>
	</outline>
</glyph>
<glyph name="hospital" format="2">
	<advance width="900"/>
	<unicode hex="1F3E5"/>
	<guideline x="25" y="0" angle="0"/>
	<guideline y="-175"/>
	<guideline x="450" y="0" angle="0"/>
	<guideline y="250"/>
	<guideline x="875" y="0" angle="0"/>
	<guideline y="675"/>
	<outline>
		<contour>
			<point x="618" y="665" type="line"/>
			<point x="282" y="665" type="line"/>
			<point x="282" y="418" type="line"/>
			<point x="35" y="418" type="line"/>
			<point x="35" y="82" type="line"/>
			<point x="282" y="82" type="line"/>
			<point x="282" y="-165" type="line"/>
			<point x="618" y="-165" type="line"/>
			<point x="618" y="82" type="line"/>
			<point x="865" y="82" type="line"/>
			<point x="865" y="418" type="line"/>
			<point x="618" y="418" type="line"/>
		</contour>
		<contour>
			<point x="91" y="138" type="line"/>
			<point x="91" y="362" type="line"/>
			<point x="338" y="362" type="line"/>
			<point x="338" y="609" type="line"/>
			<point x="562" y="609" type="line"/>
			<point x="562" y="362" type="line"/>
			<point x="809" y="362" type="line"/>
			<point x="809" y="138" type="line"/>
			<point x="562" y="138" type="line"/>
			<point x="562" y="-109" type="line"/>
			<point x="338" y="-109" type="line"/>
			<point x="338" y="138" type="line"/>
		</contour>
	</outline>
</glyph>
<glyph name="dog" format="2">
	<advance width="900"/>
	<unicode hex="1F415"/>
	<guideline x="25" y="0" angle="0"/>
	<guideline y="-175"/>
	<guideline x="450" y="0" angle="0"/>
	<guideline y="250"/>
	<guideline x="875" y="0" angle="0"/>
	<guideline y="675"/>
	<outline>
		<contour>
			<point x="135" y="317" type="curve"/>
			<point x="95" y="317"/>
			<point x="79" y="336"/>
			<point x="79" y="388" type="curve"/>
			<point x="79" y="461" type="line"/>
			<point x="189" y="461" type="line"/>
			<point x="189" y="388" type="line"/>
			<point x="189" y="334"/>
			<point x="171" y="317"/>
		</contour>
		<contour>
			<point x="875" y="515" type="line"/>
			<point x="556" y="515" type="line"/>
			<point x="556" y="461" type="line"/>
			<point x="656" y="461" type="line"/>
			<point x="658" y="136" type="line"/>
			<point x="658" y="65"/>
			<point x="634" y="42"/>
			<point x="568" y="42" type="curve"/>
			<point x="504" y="42"/>
			<point x="480" y="68"/>
			<point x="480" y="140" type="curve"/>
			<point x="480" y="181" type="line"/>
			<point x="493" y="185"/>
			<point x="496" y="194"/>
			<point x="495" y="210" type="curve"/>
			<point x="496" y="233"/>
			<point x="488" y="242"/>
			<point x="448" y="242" type="curve"/>
			<point x="412" y="242"/>
			<point x="402" y="233"/>
			<point x="402" y="210" type="curve"/>
			<point x="402" y="193"/>
			<point x="408" y="185"/>
			<point x="421" y="179" type="curve"/>
			<point x="421" y="140" type="line"/>
			<point x="421" y="68"/>
			<point x="396" y="42"/>
			<point x="332" y="42" type="curve"/>
			<point x="266" y="42"/>
			<point x="244" y="65"/>
			<point x="244" y="136" type="curve"/>
			<point x="244" y="461" type="line"/>
			<point x="348" y="461" type="line"/>
			<point x="348" y="515" type="line"/>
			<point x="25" y="515" type="line"/>
			<point x="25" y="388" type="line"/>
			<point x="25" y="299"/>
			<point x="62" y="261"/>
			<point x="139" y="261" type="curve"/>
			<point x="159" y="261"/>
			<point x="178" y="265"/>
			<point x="191" y="271" type="curve"/>
			<point x="191" y="132" type="line"/>
			<point x="191" y="55"/>
			<point x="214" y="-13"/>
			<point x="333" y="-13" type="curve"/>
			<point x="394" y="-13"/>
			<point x="430" y="6"/>
			<point x="449" y="35" type="curve"/>
			<point x="471" y="6"/>
			<point x="506" y="-13"/>
			<point x="568" y="-13" type="curve"/>
			<point x="688" y="-13"/>
			<point x="711" y="55"/>
			<point x="711" y="132" type="curve"/>
			<point x="711" y="271" type="line"/>
			<point x="725" y="265"/>
			<point x="743" y="261"/>
			<point x="762" y="261" type="curve"/>
			<point x="841" y="261"/>
			<point x="875" y="299"/>
			<point x="875" y="388" type="curve"/>
		</contour>
		<contour>
			<point x="570" y="285" type="curve"/>
			<point x="593" y="285"/>
			<point x="602" y="296"/>
			<point x="602" y="332" type="curve"/>
			<point x="602" y="370"/>
			<point x="593" y="378"/>
			<point x="570" y="378" type="curve"/>
			<point x="546" y="378"/>
			<point x="536" y="370"/>
			<point x="536" y="332" type="curve"/>
			<point x="536" y="296"/>
			<point x="546" y="285"/>
		</contour>
		<contour>
			<point x="329" y="378" type="curve"/>
			<point x="305" y="378"/>
			<point x="297" y="370"/>
			<point x="297" y="332" type="curve"/>
			<point x="297" y="296"/>
			<point x="305" y="285"/>
			<point x="329" y="285" type="curve"/>
			<point x="353" y="285"/>
			<point x="361" y="296"/>
			<point x="361" y="332" type="curve"/>
			<point x="361" y="370"/>
			<point x="353" y="378"/>
		</contour>
		<contour>
			<point x="766" y="317" type="curve"/>
			<point x="726" y="317"/>
			<point x="711" y="336"/>
			<point x="711" y="388" type="curve"/>
			<point x="711" y="461" type="line"/>
			<point x="822" y="461" type="line"/>
			<point x="822" y="388" type="line"/>
			<point x="822" y="334"/>
			<point x="803" y="317"/>
		</contour>
	</outline>
</glyph>
<glyph name="faceWithMedicalMask" format="2">
	<advance width="900"/>
	<unicode hex="1F637"/>
	<guideline x="35" y="0" angle="0"/>
	<guideline x="10" y="-175" angle="0"/>
	<guideline x="460" y="0" angle="0"/>
	<guideline x="10" y="250" angle="0"/>
	<guideline x="885" y="0" angle="0"/>
	<guideline x="10" y="675" angle="0"/>
	<outline>
		<contour>
			<point x="293" y="188" type="line"/>
			<point x="293" y="154" type="line"/>
			<point x="597" y="154" type="line"/>
			<point x="597" y="188" type="line"/>
		</contour>
		<contour>
			<point x="297" y="114" type="line"/>
			<point x="297" y="80" type="line"/>
			<point x="593" y="80" type="line"/>
			<point x="593" y="114" type="line"/>
		</contour>
		<contour>
			<point x="290" y="265" type="line"/>
			<point x="290" y="231" type="line"/>
			<point x="600" y="231" type="line"/>
			<point x="600" y="265" type="line"/>
		</contour>
		<contour>
			<point x="579" y="423" type="curve" smooth="yes"/>
			<point x="606" y="423"/>
			<point x="618" y="437"/>
			<point x="618" y="480" type="curve" smooth="yes"/>
			<point x="618" y="526"/>
			<point x="606" y="536"/>
			<point x="579" y="536" type="curve" smooth="yes"/>
			<point x="550" y="536"/>
			<point x="537" y="526"/>
			<point x="537" y="480" type="curve" smooth="yes"/>
			<point x="537" y="437"/>
			<point x="550" y="423"/>
		</contour>
		<contour>
			<point x="329" y="423" type="curve" smooth="yes"/>
			<point x="356" y="423"/>
			<point x="368" y="437"/>
			<point x="368" y="480" type="curve" smooth="yes"/>
			<point x="368" y="526"/>
			<point x="356" y="536"/>
			<point x="329" y="536" type="curve" smooth="yes"/>
			<point x="300" y="536"/>
			<point x="287" y="526"/>
			<point x="287" y="480" type="curve" smooth="yes"/>
			<point x="287" y="437"/>
			<point x="300" y="423"/>
		</contour>
		<contour>
			<point x="646" y="560" type="curve"/>
			<point x="689" y="560" type="line"/>
			<point x="689" y="600"/>
			<point x="662" y="629"/>
			<point x="587" y="629" type="curve" smooth="yes"/>
			<point x="533" y="629"/>
			<point x="483" y="609"/>
			<point x="483" y="570" type="curve"/>
			<point x="527" y="570" type="line"/>
			<point x="527" y="580"/>
			<point x="543" y="592"/>
			<point x="576" y="592" type="curve" smooth="yes"/>
			<point x="616" y="592"/>
			<point x="646" y="577"/>
		</contour>
		<contour>
			<point x="266" y="560" type="line"/>
			<point x="266" y="577"/>
			<point x="296" y="592"/>
			<point x="336" y="592" type="curve" smooth="yes"/>
			<point x="369" y="592"/>
			<point x="385" y="580"/>
			<point x="385" y="570" type="curve"/>
			<point x="429" y="570" type="line"/>
			<point x="429" y="609"/>
			<point x="379" y="629"/>
			<point x="325" y="629" type="curve" smooth="yes"/>
			<point x="250" y="629"/>
			<point x="223" y="600"/>
			<point x="223" y="560" type="curve"/>
		</contour>
		<contour>
			<point x="188" y="334" type="line"/>
			<point x="179" y="334"/>
			<point x="171" y="334"/>
			<point x="163" y="334" type="curve" smooth="yes"/>
			<point x="96" y="334"/>
			<point x="55" y="321"/>
			<point x="55" y="264" type="curve" smooth="yes"/>
			<point x="55" y="203"/>
			<point x="101" y="194"/>
			<point x="188" y="194" type="curve"/>
		</contour>
		<contour>
			<point x="661" y="325" type="line"/>
			<point x="239" y="325" type="line"/>
			<point x="239" y="171" type="line" smooth="yes"/>
			<point x="239" y="36"/>
			<point x="302" y="-29"/>
			<point x="450" y="-29" type="curve" smooth="yes"/>
			<point x="598" y="-29"/>
			<point x="661" y="36"/>
			<point x="661" y="171" type="curve" smooth="yes"/>
		</contour>
		<contour>
			<point x="769" y="372" type="line" smooth="yes"/>
			<point x="822" y="372"/>
			<point x="885" y="351"/>
			<point x="885" y="266" type="curve" smooth="yes"/>
			<point x="885" y="180"/>
			<point x="821" y="163"/>
			<point x="769" y="160" type="curve" smooth="yes"/>
			<point x="712" y="157" type="line"/>
			<point x="712" y="149" type="line" smooth="yes"/>
			<point x="712" y="-14"/>
			<point x="608" y="-79"/>
			<point x="450" y="-79" type="curve" smooth="yes"/>
			<point x="292" y="-79"/>
			<point x="188" y="-14"/>
			<point x="188" y="149" type="curve" smooth="yes"/>
			<point x="188" y="157" type="line"/>
			<point x="131" y="160" type="line" smooth="yes"/>
			<point x="79" y="163"/>
			<point x="15" y="180"/>
			<point x="15" y="266" type="curve" smooth="yes"/>
			<point x="15" y="351"/>
			<point x="78" y="372"/>
			<point x="131" y="372" type="curve" smooth="yes"/>
		</contour>
		<contour>
			<point x="712" y="334" type="curve"/>
			<point x="712" y="194" type="line"/>
			<point x="799" y="194"/>
			<point x="845" y="203"/>
			<point x="845" y="264" type="curve" smooth="yes"/>
			<point x="845" y="321"/>
			<point x="804" y="334"/>
			<point x="737" y="334" type="curve" smooth="yes"/>
			<point x="729" y="334"/>
			<point x="721" y="334"/>
		</contour>
	</outline>
</glyph>
<glyph name="restroom" format="2">
	<advance width="900"/>
	<unicode hex="1F6BB"/>
	<guideline x="-11" y="0" angle="0"/>
	<guideline x="-36" y="-175" angle="0"/>
	<guideline x="414" y="0" angle="0"/>
	<guideline x="-36" y="250" angle="0"/>
	<guideline x="839" y="0" angle="0"/>
	<guideline x="-36" y="675" angle="0"/>
	<outline>
		<contour>
			<point x="308" y="581"/>
			<point x="337" y="622"/>
			<point x="415" y="622" type="curve"/>
			<point x="495" y="622"/>
			<point x="521" y="582"/>
			<point x="521" y="495" type="curve"/>
			<point x="521" y="409"/>
			<point x="500" y="370"/>
			<point x="415" y="370" type="curve"/>
			<point x="335" y="370"/>
			<point x="308" y="410"/>
			<point x="308" y="495" type="curve"/>
		</contour>
		<contour>
			<point x="670" y="369" type="line"/>
			<point x="624" y="369" type="line"/>
			<point x="589" y="369"/>
			<point x="571" y="385"/>
			<point x="571" y="420" type="curve"/>
			<point x="571" y="455" type="line"/>
			<point x="583" y="452"/>
			<point x="604" y="450"/>
			<point x="621" y="450" type="curve"/>
			<point x="667" y="450" type="line"/>
			<point x="667" y="500" type="line"/>
			<point x="621" y="500" type="line"/>
			<point x="595" y="500"/>
			<point x="577" y="506"/>
			<point x="574" y="519" type="curve"/>
			<point x="573" y="524"/>
			<point x="573" y="528"/>
			<point x="572" y="536" type="curve"/>
			<point x="562" y="638"/>
			<point x="518" y="675"/>
			<point x="415" y="675" type="curve"/>
			<point x="291" y="675"/>
			<point x="253" y="619"/>
			<point x="253" y="495" type="curve"/>
			<point x="253" y="372"/>
			<point x="290" y="317"/>
			<point x="415" y="317" type="curve"/>
			<point x="470" y="317"/>
			<point x="514" y="330"/>
			<point x="530" y="357" type="curve"/>
			<point x="545" y="334"/>
			<point x="577" y="319"/>
			<point x="624" y="319" type="curve"/>
			<point x="670" y="319" type="line"/>
		</contour>
		<contour>
			<point x="415" y="277" type="curve"/>
			<point x="282" y="277"/>
			<point x="229" y="210"/>
			<point x="229" y="84" type="curve"/>
			<point x="229" y="-175" type="line"/>
			<point x="285" y="-175" type="line"/>
			<point x="285" y="78" type="line"/>
			<point x="285" y="164"/>
			<point x="319" y="222"/>
			<point x="415" y="222" type="curve"/>
			<point x="511" y="222"/>
			<point x="545" y="164"/>
			<point x="545" y="78" type="curve"/>
			<point x="545" y="-175" type="line"/>
			<point x="601" y="-175" type="line"/>
			<point x="601" y="84" type="line"/>
			<point x="601" y="214"/>
			<point x="543" y="277"/>
		</contour>
	</outline>
</glyph>
<glyph name="acutecomb.case" format="2">
	<advance width="0"/>
	<anchor x="0" y="650" name="_top"/>
	<outline>
		<contour>
			<point x="-86" y="755" type="line"/>
			<point x="-59" y="703" type="line"/>
			<point x="152" y="798" type="line"/>
			<point x="112" y="876" type="line"/>
		</contour>
	</outline>
</glyph>
